<?xml version="1.0" encoding="UTF-8"?>
<svg version="1.1" viewBox="0 0 200 200" xmlns="http://www.w3.org/2000/svg">
 <g transform="translate(0 -97)">
  <path d="m190 148c0-12.3-9.92-22.2-22.2-22.2h-136c-12.3 0-22.2 9.92-22.2 22.2v88.8c0 12.3 9.92 22.2 22.2 22.2h136c12.3 0 22.2-9.92 22.2-22.2z" fill="#c49e2d"/>
  <path d="m190 246c0 12.3-9.92 22.2-22.2 22.2h-136c-12.3 0-22.2-9.92-22.2-22.2l-2e-7-99c0-12.3 9.92-22.2 22.2-22.2h136c12.3 0 22.2 9.92 22.2 22.2z" fill="#f3c640" fill-opacity=".933"/>
  <path transform="matrix(.265 0 0 .265 0 97)" d="m274 299h-237v161h293l-64.6-48.8 48.4-33.6-26.9-28.4 29.9-31.2z" fill="#fff5a8"/>
 </g>
</svg>
