<?xml version="1.0" encoding="UTF-8"?>
<svg version="1.1" viewBox="0 0 200 200" xmlns="http://www.w3.org/2000/svg">
 <g fill="#f4f3e5" fill-opacity=".963">
  <path d="m170 59.3-53.2-44h-52.4c-16.4 0-29.5 13.2-29.5 29.5v115c0 16.4 13.2 29.5 29.5 29.5h76.1c16.4 0 29.5-13.2 29.5-29.5z" fill="#f4f3e5" fill-opacity=".963"/>
 </g>
 <path d="m166 52-49.8-41.1h-55.8c-16.4 0-29.5 13.2-29.5 29.5v115c0 16.4 13.2 29.5 29.5 29.5h76.1c16.4 0 29.5-13.2 29.5-29.5z" fill="#fffcf2"/>
 <path d="m116 15.4v14.4c0 16.4 13.2 29.5 29.5 29.5h23.6z" fill="#eff1b8" fill-opacity=".917"/>
</svg>
