<?xml version="1.0" encoding="UTF-8"?>
<svg width="52.9mm" height="52.9mm" version="1.1" viewBox="0 0 200 200" xmlns="http://www.w3.org/2000/svg">
 <g transform="translate(-.45 -.1)">
  <g fill="#f4f3e5" fill-opacity=".963">
   <path d="m170 59.3-53.2-44h-52.4c-16.4 0-29.5 13.2-29.5 29.5v115c0 16.4 13.2 29.5 29.5 29.5h76.1c16.4 0 29.5-13.2 29.5-29.5z" fill="#000" fill-opacity=".118"/>
  </g>
  <path d="m166 52-49.8-41.1h-55.8c-16.4 0-29.5 13.2-29.5 29.5v115c0 16.4 13.2 29.5 29.5 29.5h76.1c16.4 0 29.5-13.2 29.5-29.5z" fill="#ff5c54" fill-opacity=".796"/>
  <path d="m117 15.3v14.5c0 16.4 12.4 29.5 28.7 29.5h24.5z" fill-opacity=".118"/>
 </g>
 <g transform="matrix(1 0 0 1 2.96 .387)"></g>
 <g fill="none" stroke="#fff" stroke-linecap="round" stroke-opacity=".763" stroke-width="11.3">
  <path d="m56.2 76.2h58.6"/>
  <path d="m56.2 110h87.6"/>
  <path d="m56.2 143h87.6"/>
 </g>
</svg>
