<?xml version="1.0" encoding="UTF-8"?>
<svg version="1.1" viewBox="0 0 200 200" xmlns="http://www.w3.org/2000/svg">
 <g transform="translate(0 -97)">
  <path d="m93.6 138c4.12 4.01 12.1 7.24 17.8 7.24h56.3c12.3 0 22.2 9.92 22.2 22.2v69.1c0 12.3-9.92 22.2-22.2 22.2h-136c-12.3 0-22.2-9.92-22.2-22.2v-88.8c0-12.3 9.92-22.2 22.2-22.2h38.2c5.75 0 13.7 3.23 17.8 7.24z" fill="#c49e2d"/>
  <path d="m190 246c0 12.3-9.92 22.2-22.2 22.2h-136c-12.3 0-22.2-9.92-22.2-22.2v-38.7c0-12.3 9.92-22.2 22.2-22.2h38.2c5.75 0 13.7-3.23 17.8-7.24l5.43-5.28c4.12-4.01 12.1-7.24 17.8-7.24h56.3c12.3 0 22.2 9.92 22.2 22.2z" fill="#f3c640" fill-opacity=".933"/>
 </g>
</svg>
