<?xml version="1.0" encoding="UTF-8"?>
<svg width="52.9mm" height="52.9mm" version="1.1" viewBox="0 0 200 200" xmlns="http://www.w3.org/2000/svg">
 <g transform="translate(-.45 -.1)">
  <g fill="#f4f3e5" fill-opacity=".963">
   <path d="m170 59.3-53.2-44h-52.4c-16.4 0-29.5 13.2-29.5 29.5v115c0 16.4 13.2 29.5 29.5 29.5h76.1c16.4 0 29.5-13.2 29.5-29.5z" fill="#000" fill-opacity=".118"/>
  </g>
  <path d="m166 52-49.8-41.1h-55.8c-16.4 0-29.5 13.2-29.5 29.5v115c0 16.4 13.2 29.5 29.5 29.5h76.1c16.4 0 29.5-13.2 29.5-29.5z" fill="#53c6ff"/>
  <path d="m117 15.3v14.5c0 16.4 12.4 29.5 28.7 29.5h24.5z" fill-opacity=".118"/>
 </g>
 <path d="m65.7 101 12.3 35.2 24.2-25.8 26.7 24.6 5.08-48.3" fill="none" stroke="#fff" stroke-linejoin="bevel" stroke-width="15"/>
</svg>
