<?xml version="1.0" encoding="UTF-8"?>
<svg version="1.1" viewBox="0 0 200 200" xmlns="http://www.w3.org/2000/svg">
 <g transform="translate(2e-6 -2.43e-6)">
  <path d="m59.5 4.45c-19 0-34.5 15.4-34.5 34.4v122c0 19 15.4 34.4 34.5 34.4h81c19 0 34.5-15.4 34.5-34.4v-110a3 3 0 0 0-1.09-2.31l-53-43.8a3 3 0 0 0-1.91-.688zm0 6h58.4l51.1 42.2v108c0 15.8-12.6 28.4-28.5 28.4h-81c-15.8 0-28.5-12.6-28.5-28.4v-122c0-15.8 12.6-28.4 28.5-28.4z" fill="#d3d3d3" />
  <path d="m168 54.2-49.8-41.1h-55.8c-16.4 0-29.5 13.2-29.5 29.5v115c0 16.4 13.2 29.5 29.5 29.5h76.1c16.4 0 29.5-13.2 29.5-29.5z" fill="#fffcf2"/>
  <path d="m121 5.14-4.91 2.31v14.4c0 17.9 14.5 32.4 32.4 32.4h23.6l1.91-5.31zm1.09 8.69 41.7 34.4h-15.2c-14.7 0-26.4-11.7-26.4-26.4z" fill="#d3d3d3"/>
 </g>
</svg>
