<?xml version="1.0" encoding="UTF-8"?>
<svg version="1.1" viewBox="0 0 200 200" xmlns="http://www.w3.org/2000/svg">
  <defs>
    <radialGradient id="a" cx="186.27" cy="311.39" r="90.2" gradientTransform="matrix(.16348 -1.9806 2.4529 .20246 -604.15 574.3)" gradientUnits="userSpaceOnUse">
      <stop stop-color="#f3b240" offset="0"/>
      <stop stop-color="#f1bb22" offset=".5"/>
      <stop stop-color="#f3d640" offset="1"/>
    </radialGradient>
    <linearGradient id="b" x1="80.794" x2="105.61" y1="112.02" y2="225.62" gradientUnits="userSpaceOnUse">
      <stop stop-color="#c49e2d" offset="0"/>
      <stop stop-color="#a98724" offset=".4"/>
      <stop stop-color="#634e13" offset="1"/>
    </linearGradient>
  </defs>
  <g transform="translate(0 -97)">
    <path d="m93.6 138c4.12 4.01 12.1 7.24 17.8 7.24h56.3c12.3 0 22.3 9.93 22.3 22.21v69.1c0 12.3-10.02 22.19-22.3 22.19h-136c-12.3 0-22.2-9.92-22.2-22.2v-88.8c0-12.3 9.92-19.868 22.2-19.868h38.2c5.75 0 13.7 0.89796 17.8 4.908z" fill="url(#b)"/>
    <path d="m190 246c0 12.3-9.92 22.2-22.2 22.2h-136c-12.3 0-22.3-9.92-22.3-22.2v-45.03c0-12.3 10.02-24.532 22.3-24.532h38.2c5.75 0 13.7-0.89796 17.8-4.908l5.43-5.28c4.12-4.01 12.1-7.24 17.8-7.24h56.3c12.3 0 22.67 9.92 22.67 22.2z" fill="url(#a)"/>
  </g>
  <g transform="translate(3.72 2.83)" fill="none" stroke="#fff" stroke-linecap="round" stroke-linejoin="bevel" stroke-width="10"></g>
  <g transform="matrix(6.0889 0 0 6.0889 -481.84 -521.44)" stroke="#fff" stroke-width="1.8066">
    <path d="m101.38 105.81c0.83316-0.48102 1.6663-0.96204 2.4995-1.4431m-3.4715-3.1266h4.4435l2.2217 3.8482m-2.2217 3.8482h-4.4435l-2.2217-3.8482" fill="none" stroke="#fff" stroke-linecap="round" stroke-linejoin="round" stroke-width="1.9708"/>
  </g>
</svg>
